<svg xmlns="http://www.w3.org/2000/svg" viewBox="0 0 1080 1080"><path d="M526.981,656.573C522.71,651.217,510.487,636,502.4,643.728c-2.213,2.128-2.968,5.75-4.009,8.519a144.852,144.852,0,0,1-8.278,18.2c-2.643,4.924-9.478,12.781-6.381,18.788a3.667,3.667,0,0,0,.381.592.7.7,0,0,0,.112.209c1.84,2.854,5.378,3.494,8.528,3.529,5.023.062,10-.47,15.032-.089,10.878.8,20.345,4.832,29.283,10.844,3.6,2.409,10.037,6.6,12.617.473,1.591-3.808-.376-8.8-1.7-12.367C543.205,679.594,535.462,667.253,526.981,656.573ZM543.2,702c0,.075,0,.107.022.114C543.341,702.147,543.034,702.213,543.2,702Zm-.225-2.185c-.649-.407-1.273-.826-1.9-1.244-7.875-5.275-16.156-9.3-25.53-11.134a76.235,76.235,0,0,0-17.706-.98c-2.024.075-6.405,1.037-8.007-.635a1.184,1.184,0,0,0,.139-.233c.053-.117.577-1.511.9-2.169,1.359-2.779,3.051-5.4,4.533-8.116a202.583,202.583,0,0,0,11.045-24.69c.312-.789.6-1.355.779-1.774a4.007,4.007,0,0,0,.723.035l.012,0a14.485,14.485,0,0,1,1.855.756c4.032,2.21,7.267,5.986,10.173,9.453a138.554,138.554,0,0,1,19.258,30.654A43.641,43.641,0,0,1,542.971,699.814Zm1.989,1.248c.1-.078.147.117,0,0Z" fill="#00008a"/><path d="M539.252,689.732a43.641,43.641,0,0,1,3.719,10.082c-.649-.407-1.273-.826-1.9-1.244-7.875-5.275-16.156-9.3-25.53-11.134a76.235,76.235,0,0,0-17.706-.98c-2.024.075-6.405,1.037-8.007-.635a1.184,1.184,0,0,0,.139-.233c.053-.117.577-1.511.9-2.169,1.359-2.779,3.051-5.4,4.533-8.116a202.583,202.583,0,0,0,11.045-24.69c.312-.789.6-1.355.779-1.774a4.007,4.007,0,0,0,.723.035l.012,0a14.485,14.485,0,0,1,1.855.756c4.032,2.21,7.267,5.986,10.173,9.453A138.554,138.554,0,0,1,539.252,689.732Z" fill="#df9dfa"/><path d="M475.121,848.761a48.768,48.768,0,0,1,3.417,30.487c-.143.789-.323,1.563-.516,2.344a56.179,56.179,0,0,1-31.179,36.785c-27.5,12.7-59.431,2.125-71.32-23.62s.755-56.92,28.26-69.622a56.551,56.551,0,0,1,42.33-2.325,51.965,51.965,0,0,1,12.773,6.531A48.519,48.519,0,0,1,475.121,848.761Z" fill="#c8f657"/><path d="M578.511,751.555c-14.986-9.629-35.086-11.465-53.283-3.062-19.818,9.152-31.927,27.88-32.711,47.278a48.423,48.423,0,0,0,4.432,22.338c6.514,14.107,19.05,23.651,33.572,27.316.766.2,1.523.371,2.286.525a57.038,57.038,0,0,0,35.474-4.228,58.456,58.456,0,0,0,10.23-6.081Z" fill="#c8f657"/><path d="M526.418,815.546l-11,8.69a39.163,39.163,0,0,0-21.282-13.879,36.285,36.285,0,0,0-6.6-1.022c-8.753-.522-16.775,2.169-21.992,7.375a25.6,25.6,0,0,0-6.657,12.631,38.026,38.026,0,0,0,3.409,25.082l-12.5,6.3c-6.243-12.389-7.349-26.229-3.679-37.91a38.89,38.89,0,0,1,9.54-16.006c8.044-8.032,19.963-12.2,32.709-11.448,1.389.08,2.777.223,4.156.416A53.045,53.045,0,0,1,526.418,815.546Z" fill="#c8f657"/><path d="M531.566,831.852a31.466,31.466,0,0,1,1.241,14.1,27,27,0,0,1-3.712,10.426c-3.037,4.936-7.4,8.2-11.979,8.928-4.6.743-9.727-1.1-14.175-4.777a21.936,21.936,0,0,1,.379,8.7c-.838,5.473-3.656,10.016-7.7,12.468a12.579,12.579,0,0,1-1.428.767c-4.812,2.222-10.827,1.805-16.168-.876a23.78,23.78,0,0,1-6.686-4.963l1.7-1.6a21.783,21.783,0,0,0,5.5,4.22c5.31,2.849,11.391,3.175,15.869.462,3.409-2.066,5.87-6.122,6.609-10.842a19.909,19.909,0,0,0-1.905-12.042c-.058-.126-.123-.235-.182-.361a31.435,31.435,0,0,1-2.985-4.368l1.9-1.339A24.274,24.274,0,0,1,500.9,855.2c.024.019.042.057.066.077,4.567,5.5,10.6,8.548,15.781,7.723,3.908-.622,7.685-3.488,10.373-7.848a24.588,24.588,0,0,0,3.4-9.73,29.317,29.317,0,0,0-1.168-12.874Z" fill="#c8f657"/><path d="M500.963,855.28a16.331,16.331,0,0,1-1.852,1.546c-.248.161-.5.341-.758.489-6.214,3.776-15.581,2.724-17.2-1.059-1.746-4.079,5.745-10.781,10.35-13.783,1.077-.7,10.443-6.666,13.7-3.744C507.947,841.192,506.355,850.055,500.963,855.28Z" fill="#c8f657"/><path d="M622.031,801.879c-.611.226-1.238.4-1.864.58a2.139,2.139,0,0,0-1.141.878,1.417,1.417,0,0,0-.226.71,1.439,1.439,0,0,0,.034.761l.192.456a1.922,1.922,0,0,0,.685.685l.456.193a1.945,1.945,0,0,0,1.016,0c.625-.18,1.252-.355,1.863-.581a2.131,2.131,0,0,0,1.141-.877,1.422,1.422,0,0,0,.227-.71,1.459,1.459,0,0,0-.034-.761l-.193-.456a1.914,1.914,0,0,0-.685-.685l-.456-.193a1.921,1.921,0,0,0-1.015,0Z" fill="#0b4883"/><path d="M355.2,768.307a33.746,33.746,0,0,0-8.4-.947c-5.792-.2-11.591-.179-17.375-.227-5.247-.051-10.474-.125-15.7-.107a43.068,43.068,0,0,0-7.456.325,8.259,8.259,0,0,0-1.9.6c-2.686,1.271-4.168,3.983-4.46,7.145-.53,5.638,2.1,11.536,4.558,16.424a124.936,124.936,0,0,0,12.272,19.254,119.5,119.5,0,0,0,16.119,17.769c3.232,2.84,8.557,7.418,13.224,5.247a3.349,3.349,0,0,0,.8-.506.115.115,0,0,0,.057-.042,2.035,2.035,0,0,0,.262-.2c2.22-1.748,1.978-5.032,1.632-7.545-.631-4.594-1.653-9.07-1.589-13.755a44.082,44.082,0,0,1,4.746-19.169c2.087-4.129,5.02-7.726,7.2-11.79C361.816,775.914,360.981,770.046,355.2,768.307Zm-1.8,8.482c-1.639,3.937-4.8,7.365-6.83,11.128a52.9,52.9,0,0,0-5.851,17.4,54.6,54.6,0,0,0,.323,16.138c.136.859.3,1.706.451,2.572.084.515.18,1.023.264,1.538.058.357.109.7.161,1.047a28.793,28.793,0,0,1-4.661-3.471A99.19,99.19,0,0,1,325.4,810.477,136.795,136.795,0,0,1,314,794.371c-2.746-4.616-5.6-9.661-6.744-14.97-.077-.333-.135-.69-.187-1.035a8.087,8.087,0,0,1-.111-.84c-.014-.132-.023-.25-.026-.356a5.918,5.918,0,0,1-.047-.7q-.009-.318,0-.6a4.021,4.021,0,0,1,.115-.914,1.8,1.8,0,0,1,.472-.709c.163-.014.319-.04.451-.055.764-.076,1.564-.139,2.277-.16,3.43-.125,6.853-.031,10.279,0,9.5.083,19.1-.2,28.576.432a29.13,29.13,0,0,1,3.378.36c.261.033,1.034.276,1.226.325l.037.014a.171.171,0,0,1,.091.065A9.682,9.682,0,0,1,353.4,776.789Z" fill="#00008a"/><path d="M353.786,775.228a9.682,9.682,0,0,1-.385,1.561c-1.639,3.937-4.8,7.365-6.83,11.128a52.9,52.9,0,0,0-5.851,17.4,54.6,54.6,0,0,0,.323,16.138c.272,1.718.636,3.44.876,5.157a28.793,28.793,0,0,1-4.661-3.471A99.19,99.19,0,0,1,325.4,810.477,136.795,136.795,0,0,1,314,794.371c-2.746-4.616-5.6-9.661-6.744-14.97a11.683,11.683,0,0,1-.256-4.445,1.8,1.8,0,0,1,.472-.709c.163-.014.319-.04.451-.055.764-.076,1.564-.139,2.277-.16,3.43-.125,6.853-.031,10.279,0,9.5.083,19.1-.2,28.576.432a29.13,29.13,0,0,1,3.378.36c.261.033,1.034.276,1.226.325l.037.014A.171.171,0,0,1,353.786,775.228Z" fill="#df9dfa"/><path d="M516.744,863c3.908-.622,7.685-3.488,10.373-7.848a24.588,24.588,0,0,0,3.4-9.73c-14.522-3.665-27.058-13.209-33.572-27.316a48.5,48.5,0,0,1-2.812-7.752,36.3,36.3,0,0,0-6.6-1.022c-8.753-.522-16.775,2.169-21.992,7.375a25.589,25.589,0,0,0-6.657,12.631,48.585,48.585,0,0,1,19.652,49.908c5.311,2.848,11.392,3.174,15.869.461,3.409-2.066,5.87-6.122,6.609-10.842a19.917,19.917,0,0,0-1.905-12.042c-.248.161-.5.341-.757.489-6.215,3.776-15.582,2.724-17.206-1.059-1.745-4.079,5.746-10.781,10.351-13.783,1.077-.7,10.443-6.666,13.7-3.744,2.751,2.463,1.159,11.326-4.233,16.551C505.53,860.776,511.563,863.828,516.744,863ZM576.72,750.4V713.568c-1.567-.988-3.146-1.957-4.747-2.887A11.7,11.7,0,0,1,570,709.334c-.729-1.246-1.432-4.763-2.136-6.619-.969-2.533-1.983-5.061-3.042-7.553a220.55,220.55,0,0,0-12.268-24.8,182.807,182.807,0,0,0-23.709-32.608c-7.7-8.352-18.053-19.564-30.5-14.109-9.933,4.342-15.649,15.954-19.69,25.333a189.852,189.852,0,0,0-10.166,32.351c-.467,1.982-.9,3.966-1.295,5.945A160.652,160.652,0,0,0,358.29,756.6c-14.255-3.619-28.943-6.116-43.7-5.556-9.741.366-21.412,1.976-28.67,9.215a17.7,17.7,0,0,0-5.069,9.884,24.111,24.111,0,0,0-.021,7.108l.006.013a46.227,46.227,0,0,0,3.461,11.784l.006.013c.233.537.46,1.063.7,1.6.386.835.772,1.671,1.183,2.5q1.308,2.784,2.749,5.553c2.733,5.252,5.743,10.407,9,15.4l.006.013c1.364,2.089,2.779,4.155,4.227,6.191a.2.2,0,0,1,.053.083c2.494,3.5,5.109,6.9,7.816,10.172a170.842,170.842,0,0,0,28.808,27.381c1.058,23.049,6.46,46.658,17.393,67.038.548,1.021,1.1,2.025,1.685,3.016.6,1.03,1.21,2.054,1.84,3.053a98.813,98.813,0,0,0,19.7,22.923c.9.783,1.831,1.536,2.769,2.27a87.415,87.415,0,0,0,45.05,18.436,116.638,116.638,0,0,0,25.424-.141c2.4-.263,4.775-.607,7.159-1,.972-.157,1.933-.34,2.893-.522l.508-.1.013,0,2.657-.536c1.426-.306,2.847-.623,4.267-.973.913-.221,1.818-.455,2.724-.689,1.385-.363,2.776-.744,4.155-1.15.586-.163,1.178-.344,1.758-.52.245-.067.5-.153.737-.233.441-.142.889-.272,1.33-.414,1.046-.33,2.073-.666,3.108-1.021,1.117-.377,2.22-.749,3.325-1.151q1.779-.638,3.542-1.313l1.023-.38c.36-.152.714-.284,1.08-.422.449-.193.9-.372,1.359-.551,1.062-.429,2.124-.858,3.179-1.3,1.183-.5,2.36-1.014,3.55-1.532.809-.343,1.612-.7,2.4-1.08.386-.163.753-.332,1.12-.5l.013-.006.3-.14c1.279-.591,2.54-1.188,3.807-1.8,1.647-.792,3.276-1.59,4.887-2.426q.96-.467,1.9-.971c1.18-.606,2.341-1.219,3.5-1.832s2.3-1.233,3.454-1.871c1.238-.68,2.458-1.366,3.677-2.052,1.061-.6,2.116-1.207,3.158-1.812,1.576-.912,3.133-1.831,4.678-2.744q2.184-1.308,4.351-2.655c.974-.587,1.929-1.182,2.883-1.777s1.922-1.195,2.871-1.8c1.915-1.207,3.795-2.428,5.674-3.649.911-.59,1.821-1.18,2.726-1.782a.078.078,0,0,0,.045-.036l.006.013.006-.019.051-.023,2.543-1.681c7.114-4.718,14.4-9.7,21.577-14.994V836.932a58.847,58.847,0,0,1-8.438,4.79,57.061,57.061,0,0,1-35.474,4.23,27.028,27.028,0,0,1-3.714,10.425c-3.035,4.936-7.4,8.2-11.979,8.929-4.6.743-9.725-1.1-14.175-4.778a21.955,21.955,0,0,1,.381,8.7c-.84,5.472-3.657,10.015-7.7,12.468a12.357,12.357,0,0,1-1.429.766c-4.812,2.222-10.828,1.805-16.167-.875a56.182,56.182,0,0,1-31.18,36.786c-27.5,12.7-59.43,2.123-71.32-23.621s.756-56.92,28.259-69.622a56.559,56.559,0,0,1,42.331-2.326,38.884,38.884,0,0,1,9.541-16c8.044-8.032,19.962-12.2,32.706-11.449,1.39.081,2.778.223,4.157.417.784-19.4,12.892-38.126,32.71-47.278C542.7,740.424,561.949,741.761,576.72,750.4Zm-6.992-32.937c2.139,1.289,4.238,2.65,6.318,4.039-2.08-1.389-4.18-2.75-6.318-4.039-.441-.266-.894-.519-1.346-.774C568.834,716.945,569.287,717.2,569.728,717.464Zm-6.35-6.763a10.6,10.6,0,0,0,1.9,3.865,10.6,10.6,0,0,1-1.9-3.864q-2.074-5.793-4.439-11.494Q561.3,704.906,563.378,710.7Zm-32.27-59.543q-3.666-4.6-7.658-8.918Q527.439,646.559,531.108,651.158Zm-28.564-21.649a9.155,9.155,0,0,1,2.755-.373,9.161,9.161,0,0,0-2.755.374,11.72,11.72,0,0,0-2.089.859A11.8,11.8,0,0,1,502.544,629.509Zm-4.862,2.708A25.8,25.8,0,0,0,494.2,635.8,25.749,25.749,0,0,1,497.682,632.217Zm-7.966,10.09a77,77,0,0,0-4.2,8.183A77,77,0,0,1,489.716,642.307ZM298.337,760.664a20.482,20.482,0,0,0-6.566,3.646A20.482,20.482,0,0,1,298.337,760.664Zm47.372,94.885a2.69,2.69,0,0,0-2.006-2.715c-19.568-14.624-34.793-33.052-46.734-54.317-2.243-4.011-5.719-9.589-7.845-15.317,2.127,5.728,5.6,11.3,7.846,15.316,11.94,21.266,27.165,39.694,46.733,54.318a2.689,2.689,0,0,1,2.006,2.715q.16,4.3.561,8.57Q345.876,859.843,345.709,855.549Zm3.117-30.046c.344,2.513.587,5.8-1.632,7.544a2.193,2.193,0,0,1-.263.2.117.117,0,0,1-.056.044,3.444,3.444,0,0,1-.8.5c-4.666,2.17-9.991-2.407-13.223-5.248a119.355,119.355,0,0,1-16.12-17.769,124.658,124.658,0,0,1-12.27-19.254c-2.458-4.887-5.09-10.786-4.558-16.424.291-3.162,1.773-5.873,4.458-7.144a8.228,8.228,0,0,1,1.905-.6,43.041,43.041,0,0,1,7.454-.326c5.232-.017,10.459.057,15.707.107,5.783.05,11.582.03,17.375.227a33.716,33.716,0,0,1,8.395.948c5.781,1.74,6.615,7.606,3.981,12.481-2.179,4.063-5.112,7.661-7.2,11.791a44.028,44.028,0,0,0-4.745,19.168C347.172,816.432,348.194,820.908,348.826,825.5ZM389.911,953.41A81.655,81.655,0,0,0,412.1,964.236,81.626,81.626,0,0,1,389.911,953.41Zm12.478-9.926c2.211-.467,2.779,2.99.58,3.45a51.847,51.847,0,0,0-14.628,5.389h0q-1.529-1.114-3-2.3A56.3,56.3,0,0,1,402.389,943.484Zm-20.222-21.528c2.242-.236,2.822,3.214.575,3.468a91.28,91.28,0,0,0-16.237,3.3c-.655-1.019-1.284-2.049-1.9-3.086a117.848,117.848,0,0,1-8.712-18.127,117.848,117.848,0,0,0,8.712,18.127A92.828,92.828,0,0,1,382.167,921.956ZM470.672,693.84a153.741,153.741,0,0,0-107.954,68.752,3.662,3.662,0,0,1-4.093,1.291c-15.035-3.98-31.063-6.95-46.687-5.712-.527.041-1.088.095-1.642.146.554-.051,1.116-.105,1.643-.146,15.623-1.238,31.651,1.731,46.687,5.711a3.657,3.657,0,0,0,4.091-1.29,153.75,153.75,0,0,1,107.955-68.753,3.153,3.153,0,0,0,2.05-1.172A3.147,3.147,0,0,1,470.672,693.84Zm8.4-25.267q-2.529,8.424-4.421,17.046,1.878-8.607,4.42-17.045c1.166-3.863,2.416-7.785,3.847-11.651C481.486,660.789,480.237,664.711,479.071,668.573Zm57.992,35.752c-8.937-6.013-18.4-10.047-29.281-10.846-5.033-.38-10.011.153-15.032.09-3.15-.036-6.69-.676-8.528-3.529a.725.725,0,0,1-.114-.21,3.79,3.79,0,0,1-.379-.591c-3.1-6.008,3.738-13.864,6.38-18.787a145.086,145.086,0,0,0,8.278-18.206c1.04-2.769,1.8-6.39,4.009-8.519,8.091-7.731,20.313,7.49,24.584,12.847,8.482,10.678,16.225,23.02,21,35.856,1.324,3.567,3.29,8.559,1.7,12.367C547.1,710.92,540.666,706.732,537.063,704.325Z" fill="#00008b"/><path d="M522.445,729.134l-.37.863a28.672,28.672,0,0,0-27.062,4.567l-.634-.676a12.328,12.328,0,0,1,3.532-9.823,15.426,15.426,0,0,1,17.974-3.013A12.387,12.387,0,0,1,522.445,729.134Z" fill="#c8f657"/><path d="M403.384,794.03l.11.981a30.181,30.181,0,0,0-22.387,18.253l-.931-.288a12.976,12.976,0,0,1-1.877-10.825,16.236,16.236,0,0,1,14.879-12.1A13.037,13.037,0,0,1,403.384,794.03Z" fill="#c8f657"/><path d="M382.741,925.425a91.108,91.108,0,0,0-16.236,3.3c-2.274.7-4.52,1.457-6.731,2.325a90.429,90.429,0,0,0-37.493,27.24c-1.427,1.734-4.3-.258-2.877-2.006A94.76,94.76,0,0,1,357.934,928c2.193-.874,4.413-1.654,6.67-2.358a92.838,92.838,0,0,1,17.564-3.686C384.409,921.719,384.989,925.17,382.741,925.425Z" fill="#00008b"/><path d="M402.968,946.935a52.412,52.412,0,0,0-20.728,9.311,53.476,53.476,0,0,0-10.531,10.333,52.278,52.278,0,0,0-10.482,24.446c-.325,2.224-3.822,1.9-3.485-.327a56.5,56.5,0,0,1,11.017-25.983,57.605,57.605,0,0,1,10.712-10.739,59.024,59.024,0,0,1,5.87-3.956,56.327,56.327,0,0,1,17.048-6.536C404.6,943.016,405.167,946.473,402.968,946.935Z" fill="#00008b"/><path d="M578.724,339.511c-66.15-13.46-128.737,28.11-173.465,73.767-22.477,22.944-36.5,55.6-60.44,76.245a47.645,47.645,0,0,1-26.764,11.293c-18,1.57-33.451-15.871-16.822-30.152,4.077-3.5,12.331-5.325,11.5-12.1-1.875-15.348-33.15-8.381-42.183-6.035-23.409,6.083-43.5,26.111-53.865,47.44-37.76,77.68,43.843,158.537,120.283,158.126,47.535-.255,83.378-27.925,109.783-65.224,13.639-19.267,26.037-39.719,43.136-55.994,25.766-24.525,60.808-32.508,88.834-17.869Z" fill="#00008b"/><path d="M579.27,134.35l.626,7,.558,7,1.108,14c.683,9.336,1.347,18.672,1.936,28.008,1.228,18.673,2.255,37.345,3.229,56.017,1.9,37.344,3.329,74.688,4.494,112.033q3.355,112.032,3.3,224.065.037,112.034-3.254,224.066c-1.16,37.344-2.59,74.689-4.5,112.033-.981,18.672-2.011,37.344-3.245,56.016-.593,9.336-1.259,18.672-1.944,28.008l-1.116,14-.561,7-.63,7-.63-7-.561-7-1.116-14c-.685-9.336-1.352-18.672-1.944-28.008-1.234-18.672-2.264-37.344-3.245-56.016-1.907-37.344-3.336-74.689-4.5-112.033q-3.352-112.032-3.254-224.066.025-112.032,3.3-224.065c1.165-37.345,2.593-74.689,4.493-112.033.975-18.672,2-37.344,3.23-56.017.589-9.336,1.253-18.672,1.936-28.008l1.108-14,.558-7Z" fill="#00008b"/></svg>