<svg xmlns="http://www.w3.org/2000/svg" viewBox="0 0 2003 1026"><path d="M1801.659,609.64l-1.759-1.3-1.989-.853a22.341,22.341,0,0,0-8.773-1.793c-12.841,0-20.85,10.336-25.663,16.516-.764.977-1.4,1.9-2.042,2.558a30.557,30.557,0,0,1-7.016,5.772,32.617,32.617,0,0,1-.5-9.52c1.829-21.312,4.6-42.748,8.2-63.917,5.949-.284,12.023-.622,18.435-1.048l.941-.089a19.381,19.381,0,0,0,16.677-23.372c-3.943-19.945-12.361-32.5-25.948-38.308a2.916,2.916,0,0,0,.054-.391c1.793-14.119,2.948-30.476-5.79-45.838-8.827-15.451-24.349-23.994-43.636-23.994-14.527,0-31.009,5.1-44.134,13.64a19.649,19.649,0,0,0-8.826,12.645l-.195,1.137c-1.44,10-2.789,19.926-4.138,30.386-11.971,2.416-22.147,11.651-27,24.083a73.531,73.531,0,0,0-8.4-3.215,80.383,80.383,0,0,0-23.816-3.569c-21.365,0-43.352,8.4-61.662,23.336,2.486-23.443-2.576-48.786-14.581-71.075-5.221-9.643-11.474-18.346-17.565-26.729-8.241-11.437-16.09-22.288-19.749-33.761l31.666,1.651c2.895.161,5.826.3,8.738.3a57.086,57.086,0,0,0,19.571-3.019c11.971-4.263,20.921-13.8,23.9-24.811a60.544,60.544,0,0,0,10.9-10.531,58.615,58.615,0,0,0,11.81-24.385,22.048,22.048,0,0,0,3.215-4.085,24.717,24.717,0,0,0,2.415-20.992c-3.517-10.247-12.326-15.238-15.185-16.872-8.258-4.689-17.1-7.477-24.9-9.946-9.715-3.072-18.1-5.719-22.981-10.815-2.984-3.126-5.328-7.851-8.046-13.338a114.552,114.552,0,0,0-8.614-15.238c-10.992-15.735-29.338-26.977-50.331-30.849a101.276,101.276,0,0,0-18.488-1.652,135.461,135.461,0,0,0-32.038,4.1l-13.356-8.915c-3.782-2.522-10.123-6.767-18.808-7.033l-.87-.036c-11.952,0-20.139,7.548-24.064,11.153a508.557,508.557,0,0,0-46.94,49.3c-2.824,3.41-8.1,9.732-9.342,18.665a30.255,30.255,0,0,0,2.38,16.268,145.726,145.726,0,0,0-17.068,62.445c-.248,5.558-.141,10.993-.07,16.231.16,7.886.284,15.345-.746,22.219-.941,6.411-3.161,12.023-6.127,15.823-20.478,1.688-41.008,3.943-60.917,6.163-18.043,2.007-36.727,4.085-55.02,5.665-30.938,2.7-62.657,4.032-94.234,4.032-10.106,0-20.335-.124-30.529-.391a90.648,90.648,0,0,0-2.859-9.785c-4.991-13.924-17.565-31.294-49.125-34.934-3.924-.444-8.2-.71-13.159-.781l-1.3-.036c-.941,0-4.351.107-4.351.107l-5.381,1.083c-3.943.835-6.963,1.6-9.875,2.469a79.375,79.375,0,0,0-10.087,3.64,58.011,58.011,0,0,0-5.506,2.877c-.6.338-1.208.693-1.829,1.031a29.126,29.126,0,0,0-7.708,5.452l-7.228,7.3,2.735,9.874c.159.6.39,1.457.639,2.683-6.127-.8-11.917-1.581-17.565-2.416-19.074-2.824-39.178-6.287-56.991-14.332a89.952,89.952,0,0,1-18.221-11.047,22.616,22.616,0,0,1-4.938-9.271c-2.166-8.009-.71-10.94-.746-10.94,1.847-1.474,4.972-2.326,8.561-2.326a26.3,26.3,0,0,1,3.143.195c4.529.586,6.908,2.22,7.476,3.144a21.956,21.956,0,0,0,12.77,10.673,21.292,21.292,0,0,0,5.79.817c8.365,0,15.895-5.15,20.105-13.8,5.735-11.722,11.739-27.315,7.441-44.063-4.316-16.747-17.175-27.421-26.5-34.01-6.641-4.689-16.924-11.242-29.392-13.942a60.677,60.677,0,0,0-12.591-1.313c-17.636,0-35.964,7.529-51.664,21.222-22.4,19.59-35.858,47.26-36.941,75.96-.018.462-1.225,44.2,32.163,75.923a102.772,102.772,0,0,0,28.878,24.935c26,14.954,56.051,17.422,84.572,18.684,15.38.692,31.027,1.154,47.4,1.438-.515,7.583-1.208,15.753-2.06,24.42-.338,3.658-.782,7.619-1.279,11.757-.6-.089-1.19-.178-1.794-.266a40.542,40.542,0,0,0-13.853-19.714c-11.544-8.755-25.7-9.768-35.359-9.768l-1.723.036c-29.872.444-53.848,13.657-64.167,35.4-7.53,15.842-6.589,33.957,2.327,51.415a51.743,51.743,0,0,0-25.024,10.691c1.687-9.448,3.748-19.393,6.464-31.1,3.837-16.588,1.3-32.412-7.139-44.577-8.809-12.681-22.555-19.661-38.752-19.661-16.25,0-30.937,6.8-39.231,11.562a54.094,54.094,0,0,0-33.673-11.722c-14.652,0-29.766,5.7-44.879,16.979-22.733,16.943-38.184,44.4-44.542,74.663,3.072-41.061,11.81-81.216,21.844-105.458,25.184-.924,51.575-16.979,52.605-46,.551-15.22-9.324-30.352-24.579-37.651a55.422,55.422,0,0,0-24.172-5.31c-17.245,0-32.82,7.069-42.8,13l-1.119.639-1.012.834C523.07,448.789,482.436,505.266,451.267,577a675.623,675.623,0,0,1-18.026-90.345c15.558-11.686,23.976-29.446,21.1-46.424-2.5-14.83-14.936-31.684-42.908-34.508-1.066-.071-2.113-.124-3.162-.124-12.076,0-24.4,4.724-35.644,13.622a93.62,93.62,0,0,0-9.785,9c-4.4-1.19-8.934-2.841-13.675-4.582a162.3,162.3,0,0,0-22.5-6.944,181.981,181.981,0,0,0-37.775-3.89c-2.132,0-4.263.036-6.376.107-23.213.781-41.736,6.731-56.726,18.186a61.883,61.883,0,0,0-16.356,17.938c-16.907,29.09-11.935,67.718,11.811,91.872,12.076,12.272,26.018,20.335,40.261,23.318a57.391,57.391,0,0,0,11.58,1.172c12.627,0,24.81-3.907,33.406-10.726,9.075-7.158,21.7-23.657,4.688-53.582-1.1-1.918-3.339-5.861-3.569-8.223a.68.68,0,0,1-.019-.2c1.759-1.084,6.945-2.771,15.647-2.771a69.428,69.428,0,0,1,8.276.5c-4.333,17.849-6.607,37.012-8.844,55.713-4.884,41.132-9.537,79.955-33.14,101.054-7.885,7.068-18.932,11.455-28.824,11.455a26.521,26.521,0,0,1-14.812-4.12,28.317,28.317,0,0,0-15.523-4.813c-11.4,0-21.773,7.228-27.687,19.252-19.465,39.178-5.328,87.449,32.288,109.987,13.39,7.9,29.748,12.076,47.365,12.076,33.744,0,68.11-15.131,87.485-38.539,16.641-20.1,25.148-43.476,30.068-67.239a252.887,252.887,0,0,0,12.432,32.679l.284.55c3.427,6.784,9.271,16.322,20.335,20.85a30.751,30.751,0,0,0,11.828,2.416c14.759,0,27.759-10.923,34.792-29.215,2.877-7.531,5.221-15.079,7.476-22.4.444-1.474.907-2.912,1.368-4.351-1.918,23.07-2.93,48.165,3.055,72.478a106.285,106.285,0,0,0,40.794,61.45c14.706,10.869,33.815,16.872,53.813,16.872h.017c42.713,0,88.764-27.191,89.919-77.558l.036-.728-.054-.711c-.249-4.031-.852-14.74-9.448-22.129-5.239-4.511-11.81-6.8-19.571-6.8-2.043,0-4.138.177-6.2.355-.994.089-1.954.178-3,.2-13.6-1.882-24.083-10.318-32.021-25.752-7.033-13.8-11.331-31.577-13.48-51.2a132.728,132.728,0,0,0,4.28,14.776c12.468,34.525,38.681,55.961,68.394,55.961,14.669,0,28.628-5.488,40.457-15.575,9.3,9.75,21.9,15.043,36.727,15.043,18.843,0,37.864-8.739,52.516-19.839,15.167,13.942,36.213,21.739,59.265,21.739a98.779,98.779,0,0,0,14.386-1.03,143.751,143.751,0,0,0,45.766-14.493c1.084,16.2,3.8,29.074,8.312,39.3,5.24,11.935,12.858,20.921,22.573,26.693a75.917,75.917,0,0,0,30.387,9.733,108.857,108.857,0,0,0,12.645.763,81.851,81.851,0,0,0,17.085-1.722,70.441,70.441,0,0,0,22.236-8.561,68.141,68.141,0,0,0,17.689-14.829l3.5-4.227.319-3.2a20.186,20.186,0,0,0,1.013-4.582c1.171-12-5.879-21.862-17.068-24.384a55.274,55.274,0,0,1-4.032-14.83c-.622-4.084-1.1-8.293-1.527-12.538a91.162,91.162,0,0,0,22.875,17.245,94.792,94.792,0,0,0,44.862,10.851c24.65,0,49.851-8.649,71.021-23.816a52.878,52.878,0,0,0,14.581,13.711,55.438,55.438,0,0,0,30.139,9.022c34.525,0,61.413-30.974,70.2-61.681a19.532,19.532,0,0,0-2.593-16.516,19.272,19.272,0,0,0-14.936-8.33c-.195,0-2.042-.124-2.4-.568-1.4-1.758-4.263-8.613,0-34.685a36.782,36.782,0,0,1,1.349-5.719,40.831,40.831,0,0,0,35.041,19.625,45.8,45.8,0,0,0,23.514-6.749,41.111,41.111,0,0,0,3.445-2.4c-2.184,13.941-5.754,36.709-6.695,42.588-1.439,9.128-2.486,16.8-3.179,23.461-1.829,17.138-2.362,31.808-1.617,43.494.853,13.16,3.2,23.62,7.229,32,4.618,9.679,11.26,16.925,19.749,21.561a67.4,67.4,0,0,0,25.254,7.477,100.092,100.092,0,0,0,10.319.568,72.606,72.606,0,0,0,14.1-1.314,61.98,61.98,0,0,0,18.524-6.554,57.444,57.444,0,0,0,15.061-11.668l4-4.813.3-3.073a19.172,19.172,0,0,0,.853-3.942c1.137-10.692-5.115-19.838-14.937-22.7-.586-1.936-1.278-4.635-2.042-8.33-2.042-9.7-2.628-23.443-1.776-40.954a166.809,166.809,0,0,0,32.181-8.08,187.01,187.01,0,0,0,45.981-23.923c2.326-1.652,4.511-3.481,6.748-5.275.16,3.676.444,7.335.959,10.94,4.476,30.885,21.6,55.66,48.2,69.761a94.962,94.962,0,0,0,44.844,10.833c25.077,0,50.669-8.9,72.017-24.508,10.585,14.812,26.941,23.141,46.868,23.141,17.476,0,36.408-6.624,53.031-17.387,16.659-10.78,31.009-25.734,39.374-42.41a109.382,109.382,0,0,0,11.65-34.117A24.8,24.8,0,0,0,1801.659,609.64ZM1362.6,469.284c-2.681.533-5.4,1.119-8.027,1.865a68.963,68.963,0,0,0-8.4,2.77,48.6,48.6,0,0,0-4.635,2.256l-1.349.692a26.8,26.8,0,0,0-7.033,4.6L1325.072,489l3.2,10.549a62.731,62.731,0,0,1,1.509,8.347,53.33,53.33,0,0,0-32.589-11.1c-.782,0-1.545,0-2.2.053-13.569.5-26.321,5.471-38.06,14.883-8.773-9.431-21.7-14.847-37.313-14.847-14.918,0-30.921,5.061-42.412,13.231a18.9,18.9,0,0,0-8.311,11.473,60.881,60.881,0,0,0-32.2-22.8,80.038,80.038,0,0,0-23.781-3.569c-24.491,0-49.8,11.011-69.423,30.244-.64.6-1.225,1.261-1.83,1.9,1.493-6.785,2.452-10.763,2.522-11.029.125-.6,2.647-11.9,4.973-29.2,43.885-1.936,88.018-5.488,131.388-10.55l2.752-.32c5.95-.728,15.22-1.793,27.546-3.036,33.14-3.3,64.4-6.412,97.307-6.412,5.15,0,10.3.071,15.5.249,3.765.107,7.513.195,11.26.284,10.566.249,20.868.5,30.849,1.35Z" fill="#00008b"/><path d="M1324.35,515.14a35.839,35.839,0,0,0-28.73-12.39c-18.52.67-32.88,13.31-44.04,28.69-2.49-35.94-43.9-33.07-64.55-18.39-.39.27-.86.45-.95,1.15-4.55,33.31-9.72,66.55-13.55,99.97-.41,3.48-.79,7.12-1.1,10.87-.88.69-1.71,1.48-2.63,2.15-11.92,8.85-25.86,15.51-40.4,16.25-13.92.7-31.59-4.89-36.64-20.8a86.487,86.487,0,0,0,62.25-48.8c5.61-12.57,9.49-27.45,6.13-41.33-3.66-14.97-15.58-24.58-28.67-28.62-26.6-8.21-55.28,2.54-75.6,22.43-43.32,42.4-57.1,128.3,2.49,159.86,36.37,19.26,84.56,5.23,114.12-26.55,2.38,11.49,7.52,21.61,17.55,28.01,30.53,19.42,64.43-9.61,73.85-42.74a1.573,1.573,0,0,0-1.43-2.08c-26.6-1.37-22.38-35.2-19.04-55.56a52.774,52.774,0,0,1,17.56-32.14c6.35-5.3,11.04-6,11.69,4.33,1.46,23.07,21.62,32.84,39.03,22.36C1331.83,569.66,1340.52,534.62,1324.35,515.14ZM1110.53,556.8c7.83-5.45,14.07,2.25,12.03,11.47-4.13,18.47-19.24,31.07-32.93,41.19C1089.74,591.66,1096.66,566.47,1110.53,556.8Z" fill="#fff"/><path d="M658.275,746.766c-1.28,54.747-75.129,76.655-115.488,46.846a88.875,88.875,0,0,1-34.1-51.29c-6.308-25.769-3.929-52.75-1.572-78.923a844.558,844.558,0,0,1,14.164-100.111,639.322,639.322,0,0,0-42.6,84.758c-6.218,15.062-9.854,31.089-15.689,46.285-3.615,9.4-11.808,21.5-23.323,16.767-5.343-2.2-8.732-7.519-11.246-12.48a231.091,231.091,0,0,1-14.3-40.157c-7.272-25.073-15.51-49.921-20.965-75.488-7.407,49.36-3.456,105.836-36.992,146.352-24.488,29.562-78.36,42.514-112.166,22.514a66.61,66.61,0,0,1-25.431-86.823c3.277-6.689,9.966-12.548,17.575-7.52,19.888,13.087,47.789,6.644,65.208-8.911,45.566-40.741,31.785-127.452,52.75-183.614.314-.807-17.8-3.636-19.35-3.838-15.2-2.11-47.025-1.347-44.8,21.638.539,5.478,3.1,10.506,5.814,15.264,5.544,9.742,10.527,22.357-.269,30.909-7.946,6.285-20.63,8.126-30.348,6.106-12.009-2.514-22.671-9.652-31.269-18.406-18-18.317-22.132-48.126-9.113-70.527a44.392,44.392,0,0,1,11.807-12.751c13.513-10.347,29.854-13.984,46.554-14.545a168.255,168.255,0,0,1,39.888,3.39c13.446,2.85,25.7,9.27,38.99,12.256,1.84.426,5.14,2.132,6.98,1.5,1.594-.539,2.919-3.121,3.973-4.333a81.355,81.355,0,0,1,10.663-10.325c7.542-5.971,16.768-10.393,26.622-9.72,36.633,3.7,33.8,40.135,4.04,54.029a686.928,686.928,0,0,0,35.2,153.154c27.048-78.092,69.069-155.308,134.208-208.08,14.748-8.732,34.119-14.68,50.3-6.936,7.9,3.771,14.837,11.874,14.524,21.032-.786,21.931-26.735,32.077-45.724,28.058-31.628,58-59.327,270.617,33.31,282.177,6.2.538,13.715-2.425,18.855,2.02C657.646,739.359,658.072,743.4,658.275,746.766Z" fill="#fff"/><path d="M1791.02,612c-6.17-2.61-12.57,8.73-16.66,13.08-19.55,20.79-40.35,15.36-38.11-17.42a790.075,790.075,0,0,1,10.98-79.55c9.74-.29,19.97-.76,32.16-1.57a1.67,1.67,0,0,0,1.22-.72,1.688,1.688,0,0,0,.22-1.37c-4.54-23.09-14.3-27.76-28.42-28.1.83-5.48,1.57-10.97,2.29-16.47,1.48-11.86,2.4-24.27-3.61-34.84-13-22.74-44.92-15.94-62.88-4.18a2.045,2.045,0,0,0-.96,1.31c-2.67,18.67-5.05,37.37-7.41,56.09a15,15,0,0,1-2.63-.7,9.158,9.158,0,0,1-5.99-8.95,1.256,1.256,0,0,0-.4-.99,1.3,1.3,0,0,0-1.01-.34c-15.06,2.27-23.57,27.72-8.91,37.47a30.42,30.42,0,0,0,15.08,4.6q-4.92,39.525-9.27,79.17c-.9,6.8-1.48,13.62-1.82,20.47-.87.72-1.7,1.5-2.62,2.18-11.95,8.84-25.88,15.51-40.41,16.25-13.94.69-31.6-4.9-36.65-20.81a86.394,86.394,0,0,0,62.24-48.8c5.61-12.57,9.52-27.45,6.13-41.32-3.66-14.98-15.58-24.58-28.64-28.62-26.6-8.22-55.29,2.53-75.6,22.42-43.35,42.43-57.13,128.31,2.47,159.87,36.67,19.43,85.32,4.98,114.83-27.34,13.9,61.97,93.81,31.24,117.38-15.72a91.748,91.748,0,0,0,9.74-28.39A7.108,7.108,0,0,0,1791.02,612Zm-187.05-51.23c7.84-5.45,14.1,2.25,12.03,11.47-4.13,18.48-19.23,31.09-32.9,41.19C1583.19,595.63,1590.1,570.45,1603.97,560.77Z" fill="#fff"/><path d="M1476.97,275.53c.01.01.02.01.03.02a.79.79,0,0,0,.25.14C1477.15,275.56,1476.5,275.08,1476.97,275.53Zm.34.25a1.852,1.852,0,0,0,.14.19c.03.03.07.06.1.09C1477.86,276.34,1477.39,275.82,1477.31,275.78Zm.61.76a.037.037,0,0,0,.01.03h.01A.144.144,0,0,1,1477.92,276.54Zm-.61-.76a1.852,1.852,0,0,0,.14.19c.03.03.07.06.1.09C1477.86,276.34,1477.39,275.82,1477.31,275.78Zm-.34-.25c.01.01.02.01.03.02a.79.79,0,0,0,.25.14C1477.15,275.56,1476.5,275.08,1476.97,275.53Zm111.29,23.52c-1.12-3.3-4.15-5.53-7.18-7.23-16.73-9.5-38.63-10.06-51.92-23.95-8.29-8.62-11.54-20.86-18.41-30.66-8.91-12.8-23.68-20.75-39.01-23.57s-31.2-.92-46.29,3.05q3.78,4.485,7.57,9-15.9-10.6-31.79-21.21c-2.89-1.95-6.01-3.95-9.51-4.06-4.78-.16-8.87,3.23-12.39,6.46a495.5,495.5,0,0,0-45.3,47.59c-2.42,2.89-4.89,6.04-5.41,9.76-.76,5.55,2.96,10.64,6.62,14.86a203.343,203.343,0,0,0,63.32,48.76c1.6.78,3.44,1.54,5.1.87,2.69-1.1,2.63-4.89,2.11-7.77q-3.915-21.375-7.84-42.78c-1.23-6.73-2.44-13.69-.69-20.29s7.38-12.71,14.21-12.62c-10.33,9.18-11.16,25.14-8.31,38.66s8.6,26.62,8.64,40.45c.03,2.85-.31,5.92-2.26,7.99-3.66,3.81-10.01,1.7-14.68-.77a302.947,302.947,0,0,1-65.17-46.26,127.892,127.892,0,0,0-15.6,55.89c-.56,13.45,1.01,27.01-.96,40.32-1.73,11.62-6.82,23.52-16.07,30.41-40.74,3.08-81.3,8.8-122.02,12.33a1125.934,1125.934,0,0,1-141.44,3.18,88.591,88.591,0,0,0-4.4-21.03q-7.23-20.13-34.45-23.28a112.5,112.5,0,0,0-11.41-.69c-1.1-.02-2.22,0-3.34.02-1.26.25-2.51.49-3.77.76-2.81.61-5.61,1.26-8.37,2.09a68.658,68.658,0,0,0-8,2.85c-2.2.99-4.22,2.29-6.35,3.41a13.536,13.536,0,0,0-3.34,2.23q2.19,7.875,4.04,27.7c-13.58-1.51-27.12-3.19-40.63-5.19-21.08-3.12-42.34-6.91-61.73-15.74a106.2,106.2,0,0,1-23.16-14.27,40.36,40.36,0,0,1-9.72-17.2c-.65-2.51-6.11-20.71,5.23-29.78,6.89-5.48,16.29-6.96,25.02-5.84,7.97,1.01,16.19,4.49,20.3,11.38.69,1.21,1.41,2.61,2.74,3.01,2.15.63,3.92-1.73,4.91-3.75,4.85-9.94,8.96-21.17,6.2-31.87-2.61-10.19-10.96-17.87-19.56-23.95-6.98-4.92-14.54-9.27-22.89-11.07-17.37-3.75-35.47,4.24-48.84,15.94-18.18,15.87-29.99,39.12-30.91,63.25-.07,2.02,0,37.82,27.52,63.19a86.494,86.494,0,0,0,24.64,21.64c22.83,13.11,50.19,15.17,76.52,16.34q32.625,1.41,65.32,1.64-.675,18.78-3.09,43.63-1.395,14.175-4.02,32.26t-5.3,36.79q-2.7,18.72-5.27,36.48c-1.2,8.03-2.14,15.26-2.9,21.81a21.22,21.22,0,0,1-5.23,2.47,50.986,50.986,0,0,0-.92-16.2,68.013,68.013,0,0,0-20.18-34.32c-8.98-8.62-20.49-19.24-18.29-32.91,1.68-10.28,14.45-7.97,20.78-13.9,8.8-8.23,4.54-21.79-3.97-28.28-7.16-5.43-17.4-6.26-26.13-6.15-44.06.65-68.24,35.38-38.81,72.59,7.92,10.01,17.08,19.51,20.65,32.3,2.63,9.57-.16,26.04-12.75,21.37-11.65-4.28-11.2-22.2-6.66-32.27a1.545,1.545,0,0,0-.54-2.05c-19.85-12.79-41.87-1.91-50.82,18.39a53.709,53.709,0,0,0-4.31,20.67,14.278,14.278,0,0,1-1.98.22c-20-.09-12.14-38.2-9.81-51.85,1.98-11.67,4.43-23.21,7.1-34.7,2.44-10.55,1.75-21.55-4.4-30.44-13.23-19.03-39.06-12.25-56.12-1.95a2.076,2.076,0,0,0-1.08,1.37c-.69,4.69-1.41,9.43-2.15,14.12-18.68-31.56-45.32-32.17-72.06-12.28-37.64,28.06-49.96,87.7-33.69,132.75,18,49.76,67.97,61.19,95.04,15.51,13.18,46.58,64.71,27.25,88.13.47a58.02,58.02,0,0,0,4.62,6.55c15.4,18.99,41.23,25.66,64.85,22.23a125.2,125.2,0,0,0,53.51-20.7,129.126,129.126,0,0,0,12.39-9.61,282.572,282.572,0,0,0-.09,30.76q1.29,21.945,6.94,34.77,5.625,12.795,15.4,18.58,9.765,5.82,23.38,7.39,13.605,1.545,23.87-.7a53.831,53.831,0,0,0,16.99-6.44,50.831,50.831,0,0,0,13.13-10.96l.04-.62a1.326,1.326,0,0,1,.39-.9,1.363,1.363,0,0,0,.38-.88c.31-3.3-1.06-5.12-4.07-5.45a8.957,8.957,0,0,0-2.31.04,8.4,8.4,0,0,1-2.29.05c-.65-.07-9.02-7.48-12.34-29.47-12.75-84.83,15.71-199.2,15.71-199.2a387.584,387.584,0,0,0,6.44-42.4q72.765-2.6,145.17-11.04c5.72-.67,16.11-1.95,30.23-3.35,38.47-3.83,75.6-7.56,115.51-6.3,25.32.81,51.09.33,75.67,7.34,32.84,9.33,57.71,33.29,69.92,64.98,4.65,12.08,4.76,24.15,4.44,26.98a52.447,52.447,0,0,1-.78,5.19c-.32,1.63-.74,3.34-1.21,5.11a54.3,54.3,0,0,1-11.7,21.84,67.152,67.152,0,0,1-18.23,14.53,92.757,92.757,0,0,1-21.45,8.46,162.834,162.834,0,0,1-21.46,4.13q3.255-17.91,6.93-35.15a317.208,317.208,0,0,0,5.19-31.67q2.385-22.605-3.37-37.38-5.76-14.745-27.43-17.06c-2.71-.29-5.75-.45-9.09-.51-.88,0-1.75,0-2.65.02-1.01.18-2.02.36-3.01.56-2.24.43-4.46.92-6.66,1.53a56.568,56.568,0,0,0-6.38,2.08c-1.75.72-3.37,1.69-5.05,2.52a10.384,10.384,0,0,0-2.67,1.61c1.35,4.47,2.56,12.84,3.68,25.14q1.65,18.69-2.15,54.84-1.11,10.41-3.21,23.66-2.085,13.26-4.22,26.98-2.16,13.71-4.2,26.76c-1.39,8.68-2.4,16.18-3.08,22.51q-2.58,24.42-1.55,40.52c.68,10.75,2.52,19.23,5.53,25.5q4.47,9.39,12.25,13.62a49.1,49.1,0,0,0,18.63,5.41,63.085,63.085,0,0,0,19.02-.49,44.606,44.606,0,0,0,13.53-4.74,39.282,39.282,0,0,0,10.44-8.03l.04-.45a.94.94,0,0,1,.32-.65.971.971,0,0,0,.29-.66c.25-2.42-.83-3.74-3.23-4.01a8.117,8.117,0,0,0-1.84.04,8.527,8.527,0,0,1-1.82.05c-3.61-.41-6.89-7.59-9.83-21.62s-3.3-34.32-1.08-60.9a140.222,140.222,0,0,0,42.94-8.48,167.963,167.963,0,0,0,41.59-21.64,129.125,129.125,0,0,0,32.6-33.56,96.752,96.752,0,0,0,15.89-44.26c3.21-30.33,3.59-62.52-11.29-90.13-12.86-23.9-34.84-43.56-40.34-70.14-.99-4.83-1.14-10.53,2.43-13.92,3.23-3.05,8.21-3.01,12.65-2.78q18.09.945,36.17,1.88c7.2.39,14.63.72,21.41-1.7,6.8-2.43,12.88-8.35,13.2-15.56-20.07,8.62-40.54,1.34-58.69-8.17-3.56-1.87-7.07-3.79-10.62-5.67a3.648,3.648,0,0,0-1.23-.45,2.208,2.208,0,0,0-.63.05,7.384,7.384,0,0,0,1.1,4.48.82.82,0,0,1-.66,1.29,2.195,2.195,0,0,1-1.98-1.02,9.378,9.378,0,0,1-.98-7.89,9.123,9.123,0,0,1,5.01-5.34c1.17-.52,3.48,1.48,1.94,2.16a7.464,7.464,0,0,0-3.27,2.82,4.878,4.878,0,0,1,.56-.02,11.152,11.152,0,0,1,1.29.07,12.923,12.923,0,0,1,1.67.27c6.12,1.39,11.64,4.59,17.28,7.32a72.682,72.682,0,0,0,30.15,7.48c10.45.18,25.24-1.59,32.16-10.47,5.04-6.47,8.78-13.96,9.62-22.21a34.378,34.378,0,0,0-.18-8.6,4.025,4.025,0,0,1,1.63,5.27C1587.63,306.75,1589.4,302.32,1588.26,299.05ZM694.73,624.93c-10.91,7.22-16.61-10.87-17.29-20.14-1.19-16.14,2.74-51.36,21.24-51.63C719.37,552.87,706.87,616.87,694.73,624.93Zm791.34-341.12a2.2,2.2,0,0,1-2.14.41,6.629,6.629,0,0,1-4.63-4.24,16.851,16.851,0,0,0-.54-1.84c-.02-.05-.12-.28-.18-.43a.558.558,0,0,0,.05.08.488.488,0,0,1-.03-.07.574.574,0,0,1-.04-.07c-.02-.06-.04-.08-.04-.07-.06-.11-.12-.22-.13-.25s-.27-.43-.39-.65c.12.18.32.38.02,0a.5.5,0,0,0-.07-.08c0-.01-.01-.02-.01-.03a.144.144,0,0,1-.02-.03.037.037,0,0,0,.01.03c-.16-.2-.32-.41-.48-.6-.16-.13-.3-.27-.45-.41l-.03-.03c-.17-.11-.36-.23-.54-.35a.839.839,0,0,0,.21.08c-.06-.06-.55-.32-.26-.11-.25-.11-.49-.23-.75-.33-.02-.01-.03-.01-.04-.02a.281.281,0,0,0,.08.01c-.07-.06-.49-.19-.1-.01-.5-.11-.98-.25-1.48-.33-.02,0-.03,0-.04-.01.16,0,.02-.01-.04-.01a.037.037,0,0,0,.03.01.712.712,0,0,1-.16.01c-.3-.01-.6-.02-.91-.01-.25.01-.5.03-.75.05-.08.01-.31.04-.4.05a10.754,10.754,0,0,0-3.06,1.09,12.212,12.212,0,0,0-4.46,4.43c-1.02,1.65-4.12-.45-4.95-1.18-1.29-1.12-2.62-3.17-1.6-4.82a13.9,13.9,0,0,1,14.98-6.26,19.026,19.026,0,0,1,13.57,13.82A2.349,2.349,0,0,1,1486.07,283.81Zm-8.76-8.03a1.852,1.852,0,0,0,.14.19c.03.03.07.06.1.09C1477.86,276.34,1477.39,275.82,1477.31,275.78Zm-.06-.09c-.1-.13-.75-.61-.28-.16.01.01.02.01.03.02A.79.79,0,0,0,1477.25,275.69Z" fill="#fff"/><path d="M1474.01,274.45c.06,0,.2.01.04.01h-.01A.037.037,0,0,1,1474.01,274.45Z" fill="#00008a"/><path d="M1475.67,274.81a.281.281,0,0,1-.08-.01h-.02C1475.18,274.62,1475.6,274.75,1475.67,274.81Z" fill="#00008a"/><path d="M1476.64,275.26a.839.839,0,0,1-.21-.08l-.01-.01a.076.076,0,0,1-.04-.02C1476.09,274.94,1476.58,275.2,1476.64,275.26Z" fill="#00008a"/><path d="M1477,275.55c-.01-.01-.02-.01-.03-.02C1476.32,274.9,1477.83,276.09,1477,275.55Z" fill="#00008a"/><path d="M1477.55,276.06c-.03-.03-.07-.06-.1-.09a1.852,1.852,0,0,1-.14-.19C1477.39,275.82,1477.86,276.34,1477.55,276.06Z" fill="#00008a"/><path d="M1477.94,276.57c0,.01.01.02.01.03-.01-.01-.02-.02-.02-.03Z" fill="#00008a"/><path d="M1478.63,277.79a.558.558,0,0,1-.05-.08.031.031,0,0,0-.01-.02.239.239,0,0,0-.03-.07c-.03-.07-.02-.07.06.1A.488.488,0,0,0,1478.63,277.79Z" fill="#00008a"/></svg>